<svg xmlns="http://www.w3.org/2000/svg" xmlns:xlink="http://www.w3.org/1999/xlink" width="185" zoomAndPan="magnify" viewBox="0 0 138.75 138.749998" height="185" preserveAspectRatio="xMidYMid meet" version="1.0"><defs><clipPath id="653042315a"><path d="M 0 0 L 138.5 0 L 138.5 138 L 0 138 Z M 0 0 " clip-rule="nonzero"/></clipPath><clipPath id="d3e48515d1"><path d="M 0 0 L 94 0 L 94 137.832031 L 0 137.832031 Z M 0 0 " clip-rule="nonzero"/></clipPath><clipPath id="a580daf76f"><path d="M 43.941406 0 L 138.011719 0 L 138.011719 137.832031 L 43.941406 137.832031 Z M 43.941406 0 " clip-rule="nonzero"/></clipPath><clipPath id="33e5c26cc8"><path d="M 1 0 L 95.003906 0 L 95.003906 137.832031 L 1 137.832031 Z M 1 0 " clip-rule="nonzero"/></clipPath><clipPath id="0ff4c86e6a"><rect x="0" width="96" y="0" height="138"/></clipPath><clipPath id="aae2cb16c4"><path d="M 41.785156 74 L 64 74 L 64 92.761719 L 41.785156 92.761719 Z M 41.785156 74 " clip-rule="nonzero"/></clipPath><clipPath id="8a2d55efa2"><path d="M 74 74 L 96.226562 74 L 96.226562 92.761719 L 74 92.761719 Z M 74 74 " clip-rule="nonzero"/></clipPath><clipPath id="113e9c1b44"><path d="M 55 38.203125 L 69 38.203125 L 69 87 L 55 87 Z M 55 38.203125 " clip-rule="nonzero"/></clipPath><clipPath id="2a413ae0df"><path d="M 69 38.203125 L 83 38.203125 L 83 87 L 69 87 Z M 69 38.203125 " clip-rule="nonzero"/></clipPath><clipPath id="4ac609184b"><rect x="0" width="139" y="0" height="138"/></clipPath></defs><g clip-path="url(#653042315a)"><g transform="matrix(1, 0, 0, 1, 0, -0.000000000000024116)"><g clip-path="url(#4ac609184b)"><g clip-path="url(#d3e48515d1)"><path fill="#ffffff" d="M 60.046875 0.015625 L 77.757812 0.015625 C 79.777344 0.015625 81.417969 1.652344 81.429688 3.671875 C 81.429688 3.683594 81.429688 3.695312 81.429688 3.707031 L 82.265625 15.6875 C 82.285156 15.945312 82.464844 16.164062 82.714844 16.226562 C 86.535156 17.226562 90.1875 18.625 93.628906 20.386719 C 93.632812 20.386719 93.632812 20.386719 93.632812 20.386719 C 93.964844 20.558594 94.058594 20.984375 93.835938 21.277344 L 85.449219 32.292969 C 85.28125 32.511719 84.984375 32.589844 84.730469 32.480469 C 83.300781 31.855469 81.824219 31.316406 80.3125 30.863281 C 78.375 30.285156 76.375 29.847656 74.328125 29.566406 C 73.101562 29.398438 71.855469 29.289062 70.59375 29.234375 C 70.035156 29.210938 69.46875 29.199219 68.902344 29.199219 C 67.8125 29.199219 66.734375 29.246094 65.667969 29.328125 C 54.035156 30.265625 43.824219 36.214844 37.183594 45.011719 C 32.164062 51.660156 29.183594 59.941406 29.183594 68.914062 C 29.183594 90.851562 46.96875 108.632812 68.902344 108.632812 C 74.53125 108.632812 79.882812 107.460938 84.730469 105.351562 C 84.984375 105.242188 85.28125 105.320312 85.449219 105.539062 L 86.234375 106.574219 L 93.828125 116.546875 C 94.054688 116.84375 93.957031 117.273438 93.628906 117.445312 C 93.589844 117.464844 93.546875 117.488281 93.507812 117.507812 C 93.453125 117.535156 93.402344 117.5625 93.347656 117.589844 C 91.621094 118.457031 89.839844 119.238281 88.015625 119.921875 C 86.289062 120.570312 84.519531 121.132812 82.714844 121.601562 C 82.464844 121.667969 82.285156 121.886719 82.265625 122.144531 L 81.429688 134.125 C 81.429688 134.136719 81.429688 134.148438 81.429688 134.160156 C 81.417969 136.179688 79.777344 137.8125 77.757812 137.8125 L 60.046875 137.8125 C 58.027344 137.8125 56.382812 136.179688 56.375 134.160156 C 56.375 134.148438 56.375 134.136719 56.375 134.125 L 55.539062 122.144531 C 55.519531 121.886719 55.339844 121.667969 55.085938 121.601562 C 50.234375 120.332031 45.644531 118.414062 41.417969 115.9375 C 41.195312 115.804688 40.914062 115.832031 40.71875 116 L 31.648438 123.886719 C 31.640625 123.890625 31.632812 123.898438 31.625 123.90625 C 30.191406 125.328125 27.875 125.324219 26.445312 123.894531 L 18.8125 116.265625 L 13.921875 111.375 C 12.492188 109.945312 12.488281 107.625 13.910156 106.191406 C 13.917969 106.183594 13.925781 106.175781 13.933594 106.167969 L 21.816406 97.101562 C 21.988281 96.90625 22.011719 96.621094 21.878906 96.398438 C 19.40625 92.171875 17.484375 87.585938 16.214844 82.730469 C 16.148438 82.480469 15.933594 82.296875 15.671875 82.28125 L 3.691406 81.445312 C 3.679688 81.441406 3.667969 81.441406 3.660156 81.441406 C 1.636719 81.433594 0.00390625 79.792969 0.00390625 77.769531 L 0.00390625 60.0625 C 0.00390625 58.039062 1.636719 56.398438 3.660156 56.390625 C 3.667969 56.390625 3.679688 56.390625 3.691406 56.386719 L 15.671875 55.550781 C 15.933594 55.535156 16.148438 55.351562 16.214844 55.101562 C 17.484375 50.246094 19.40625 45.660156 21.878906 41.429688 C 22.011719 41.207031 21.988281 40.925781 21.816406 40.730469 L 20.488281 39.199219 L 13.933594 31.664062 C 13.925781 31.652344 13.917969 31.644531 13.910156 31.640625 C 12.488281 30.207031 12.492188 27.886719 13.921875 26.457031 L 18.8125 21.566406 L 26.445312 13.9375 C 27.875 12.507812 30.191406 12.5 31.625 13.925781 C 31.632812 13.933594 31.640625 13.9375 31.648438 13.945312 L 40.71875 21.832031 C 40.914062 22 41.195312 22.023438 41.417969 21.894531 C 45.070312 19.757812 48.988281 18.03125 53.121094 16.78125 C 53.769531 16.585938 54.425781 16.402344 55.085938 16.226562 C 55.339844 16.164062 55.519531 15.945312 55.539062 15.6875 L 55.660156 13.910156 L 55.765625 12.429688 L 56.074219 7.988281 L 56.375 3.707031 C 56.375 3.695312 56.375 3.683594 56.375 3.671875 C 56.382812 1.652344 58.027344 0.015625 60.046875 0.015625 " fill-opacity="1" fill-rule="nonzero"/></g><g clip-path="url(#a580daf76f)"><g transform="matrix(1, 0, 0, 1, 43, -0.000000000000024116)"><g clip-path="url(#0ff4c86e6a)"><g clip-path="url(#33e5c26cc8)"><path fill="#ffffff" d="M 34.957031 0.015625 L 17.25 0.015625 C 15.226562 0.015625 13.585938 1.652344 13.578125 3.671875 C 13.578125 3.683594 13.578125 3.695312 13.574219 3.707031 L 12.738281 15.6875 C 12.71875 15.945312 12.539062 16.164062 12.289062 16.226562 C 8.472656 17.226562 4.820312 18.625 1.375 20.386719 C 1.375 20.386719 1.371094 20.386719 1.371094 20.386719 C 1.042969 20.558594 0.945312 20.984375 1.171875 21.277344 L 9.554688 32.292969 C 9.722656 32.511719 10.019531 32.589844 10.273438 32.480469 C 11.703125 31.855469 13.179688 31.316406 14.695312 30.863281 C 16.628906 30.285156 18.628906 29.847656 20.675781 29.566406 C 21.90625 29.398438 23.148438 29.289062 24.410156 29.234375 C 24.96875 29.210938 25.535156 29.199219 26.101562 29.199219 C 27.191406 29.199219 28.269531 29.246094 29.339844 29.328125 C 40.96875 30.265625 51.183594 36.214844 57.820312 45.011719 C 62.84375 51.660156 65.820312 59.941406 65.820312 68.914062 C 65.820312 90.851562 48.039062 108.632812 26.101562 108.632812 C 20.476562 108.632812 15.125 107.460938 10.273438 105.351562 C 10.019531 105.242188 9.722656 105.320312 9.554688 105.539062 L 8.769531 106.574219 L 1.175781 116.546875 C 0.949219 116.84375 1.046875 117.273438 1.375 117.445312 C 1.417969 117.464844 1.457031 117.488281 1.496094 117.507812 C 1.550781 117.535156 1.605469 117.5625 1.65625 117.589844 C 3.382812 118.457031 5.164062 119.238281 6.988281 119.921875 C 8.714844 120.570312 10.484375 121.132812 12.289062 121.601562 C 12.539062 121.667969 12.71875 121.886719 12.738281 122.144531 L 13.574219 134.125 C 13.578125 134.136719 13.578125 134.148438 13.578125 134.160156 C 13.585938 136.179688 15.226562 137.8125 17.25 137.8125 L 34.957031 137.8125 C 36.980469 137.8125 38.621094 136.179688 38.628906 134.160156 C 38.628906 134.148438 38.628906 134.136719 38.628906 134.125 L 39.46875 122.144531 C 39.484375 121.886719 39.664062 121.667969 39.917969 121.601562 C 44.769531 120.332031 49.359375 118.414062 53.585938 115.9375 C 53.8125 115.804688 54.09375 115.832031 54.289062 116 L 63.355469 123.886719 C 63.363281 123.890625 63.371094 123.898438 63.378906 123.90625 C 64.8125 125.328125 67.128906 125.324219 68.5625 123.894531 L 81.082031 111.375 C 82.511719 109.945312 82.515625 107.625 81.09375 106.191406 C 81.085938 106.183594 81.078125 106.175781 81.074219 106.167969 L 73.1875 97.101562 C 73.019531 96.90625 72.992188 96.621094 73.125 96.398438 C 75.601562 92.171875 77.519531 87.585938 78.789062 82.730469 C 78.855469 82.480469 79.074219 82.296875 79.332031 82.28125 L 91.3125 81.445312 C 91.324219 81.441406 91.335938 81.441406 91.34375 81.441406 C 93.367188 81.433594 95.003906 79.792969 95.003906 77.769531 L 95.003906 60.0625 C 95.003906 58.039062 93.367188 56.398438 91.34375 56.390625 C 91.335938 56.390625 91.324219 56.390625 91.3125 56.386719 L 79.332031 55.550781 C 79.074219 55.535156 78.855469 55.351562 78.789062 55.101562 C 77.519531 50.246094 75.601562 45.660156 73.125 41.429688 C 72.992188 41.207031 73.019531 40.925781 73.1875 40.730469 L 74.515625 39.199219 L 81.074219 31.664062 C 81.078125 31.652344 81.085938 31.644531 81.09375 31.640625 C 82.515625 30.207031 82.511719 27.886719 81.082031 26.457031 L 68.5625 13.9375 C 67.128906 12.507812 64.8125 12.5 63.378906 13.925781 C 63.371094 13.933594 63.363281 13.9375 63.355469 13.945312 L 54.289062 21.832031 C 54.09375 22 53.8125 22.023438 53.585938 21.894531 C 49.9375 19.757812 46.015625 18.03125 41.882812 16.78125 C 41.234375 16.585938 40.578125 16.402344 39.917969 16.226562 C 39.664062 16.164062 39.484375 15.945312 39.46875 15.6875 L 39.34375 13.910156 L 39.238281 12.429688 L 38.929688 7.988281 L 38.628906 3.707031 C 38.628906 3.695312 38.628906 3.683594 38.628906 3.671875 C 38.621094 1.652344 36.980469 0.015625 34.957031 0.015625 " fill-opacity="1" fill-rule="nonzero"/></g></g></g></g><g clip-path="url(#aae2cb16c4)"><path fill="#ffffff" d="M 41.78125 83.183594 C 41.988281 82.664062 47.585938 74.648438 53.21875 74.304688 C 62.683594 73.726562 63.785156 82.007812 63.929688 82.398438 C 64.011719 82.613281 62.515625 92.699219 53.15625 92.300781 C 42.632812 91.855469 42.066406 83.695312 41.78125 83.183594 Z M 41.78125 83.183594 " fill-opacity="1" fill-rule="evenodd"/></g><g clip-path="url(#8a2d55efa2)"><path fill="#ffffff" d="M 96.21875 83.183594 C 96.015625 82.664062 90.417969 74.648438 84.785156 74.304688 C 75.320312 73.726562 74.21875 82.007812 74.070312 82.398438 C 73.992188 82.613281 75.488281 92.699219 84.847656 92.300781 C 95.371094 91.855469 95.933594 83.695312 96.21875 83.183594 Z M 96.21875 83.183594 " fill-opacity="1" fill-rule="evenodd"/></g><g clip-path="url(#113e9c1b44)"><path fill="#ffffff" d="M 58.605469 46.230469 C 59.5625 48.316406 58.621094 51.066406 58.511719 51.558594 C 57.976562 54.070312 57.558594 57.695312 58.125 60.203125 C 59.492188 66.253906 63.269531 68.691406 64.347656 74.894531 C 64.796875 77.488281 64.570312 81.050781 62.277344 82.769531 C 60.847656 83.839844 59.058594 84.464844 57.304688 84.757812 C 56.972656 84.8125 55.371094 84.644531 55.136719 84.875 C 54.9375 85.074219 55.601562 85.195312 55.839844 85.34375 C 56.757812 85.917969 57.6875 86.25 58.765625 86.398438 C 61.457031 86.765625 65.347656 84.519531 66.636719 81.757812 C 68.339844 78.109375 66.917969 73.46875 65.585938 69.847656 C 64.875 67.917969 65.140625 62.761719 67.488281 57.25 C 67.980469 56.097656 69.234375 50.039062 67.664062 45.535156 C 66.121094 41.117188 61.714844 38.214844 61.800781 38.289062 C 63.347656 39.628906 62.796875 47.457031 61.597656 52.695312 C 60.75 56.378906 60.882812 58.207031 60.882812 58.207031 C 60.882812 58.207031 60.414062 55.925781 61.195312 51.867188 C 61.65625 49.480469 59.9375 47.292969 58.605469 46.230469 Z M 58.605469 46.230469 " fill-opacity="1" fill-rule="evenodd"/></g><g clip-path="url(#2a413ae0df)"><path fill="#ffffff" d="M 79.398438 46.230469 C 78.441406 48.316406 79.382812 51.066406 79.488281 51.558594 C 80.027344 54.070312 80.445312 57.695312 79.878906 60.203125 C 78.507812 66.253906 74.734375 68.691406 73.65625 74.894531 C 73.203125 77.488281 73.433594 81.050781 75.726562 82.769531 C 77.15625 83.839844 78.945312 84.464844 80.699219 84.757812 C 81.03125 84.8125 82.632812 84.644531 82.863281 84.875 C 83.0625 85.074219 82.402344 85.195312 82.164062 85.34375 C 81.246094 85.917969 80.316406 86.25 79.234375 86.398438 C 76.542969 86.765625 72.652344 84.519531 71.363281 81.757812 C 69.664062 78.109375 71.085938 73.46875 72.417969 69.847656 C 73.128906 67.917969 72.863281 62.761719 70.515625 57.25 C 70.023438 56.097656 68.769531 50.039062 70.339844 45.535156 C 71.882812 41.117188 76.285156 38.214844 76.199219 38.289062 C 74.652344 39.628906 75.203125 47.457031 76.40625 52.695312 C 77.25 56.378906 77.121094 58.207031 77.121094 58.207031 C 77.121094 58.207031 77.585938 55.925781 76.804688 51.867188 C 76.347656 49.480469 78.066406 47.292969 79.398438 46.230469 Z M 79.398438 46.230469 " fill-opacity="1" fill-rule="evenodd"/></g><path fill="#ffffff" d="M 60.652344 84 C 60.65625 83.550781 60.964844 83.582031 61.324219 83.582031 C 62.132812 83.582031 62.523438 83.796875 62.914062 84.578125 C 63.359375 85.464844 63.71875 86.582031 63.914062 87.550781 C 64.101562 88.492188 64.050781 89.582031 64.648438 90.398438 C 65.476562 91.535156 67.113281 91.84375 68.308594 91.214844 C 68.417969 91.15625 68.945312 91.027344 68.984375 90.988281 C 69.070312 90.902344 68.792969 90.824219 68.757812 90.820312 C 68.425781 90.761719 68.023438 90.84375 67.6875 90.875 C 66.859375 90.957031 66.128906 90.292969 65.746094 89.636719 C 64.847656 88.109375 65.445312 86.089844 64.5625 84.59375 C 64.089844 83.792969 63.585938 83.101562 62.550781 83.144531 C 62.195312 83.160156 61.875 83.285156 61.546875 83.410156 " fill-opacity="1" fill-rule="evenodd"/><path fill="#ffffff" d="M 77.347656 84 C 77.347656 83.550781 77.039062 83.582031 76.679688 83.582031 C 75.867188 83.582031 75.476562 83.796875 75.089844 84.578125 C 74.644531 85.464844 74.28125 86.582031 74.089844 87.550781 C 73.898438 88.492188 73.953125 89.582031 73.355469 90.398438 C 72.527344 91.535156 70.890625 91.84375 69.695312 91.214844 C 69.582031 91.15625 69.058594 91.027344 69.019531 90.988281 C 68.929688 90.902344 69.210938 90.824219 69.242188 90.820312 C 69.578125 90.761719 69.980469 90.84375 70.3125 90.875 C 71.144531 90.957031 71.871094 90.292969 72.257812 89.636719 C 73.15625 88.109375 72.554688 86.089844 73.441406 84.59375 C 73.914062 83.792969 74.414062 83.101562 75.453125 83.144531 C 75.808594 83.160156 76.128906 83.285156 76.453125 83.410156 " fill-opacity="1" fill-rule="evenodd"/></g></g></g></svg>