<svg xmlns="http://www.w3.org/2000/svg" xmlns:xlink="http://www.w3.org/1999/xlink" width="1594" zoomAndPan="magnify" viewBox="0 0 1195.5 542.249967" height="723" preserveAspectRatio="xMidYMid meet" version="1.2"><defs><clipPath id="07cd3f7006"><path d="M 0.503906 0.371094 L 94.613281 0.371094 L 94.613281 138.257812 L 0.503906 138.257812 Z M 0.503906 0.371094 "/></clipPath><clipPath id="9f8b39682d"><path d="M 44.464844 0.371094 L 138.574219 0.371094 L 138.574219 138.257812 L 44.464844 138.257812 Z M 44.464844 0.371094 "/></clipPath><clipPath id="01da5930a2"><path d="M 0.464844 0.371094 L 94.566406 0.371094 L 94.566406 138.257812 L 0.464844 138.257812 Z M 0.464844 0.371094 "/></clipPath><clipPath id="6ff24b694f"><rect x="0" width="95" y="0" height="139"/></clipPath><clipPath id="1e8f3c9e24"><path d="M 42.304688 74 L 65 74 L 65 93 L 42.304688 93 Z M 42.304688 74 "/></clipPath><clipPath id="3c73714872"><path d="M 74 74 L 96.769531 74 L 96.769531 93 L 74 93 Z M 74 74 "/></clipPath><clipPath id="6567df7505"><path d="M 55 38.589844 L 69 38.589844 L 69 87 L 55 87 Z M 55 38.589844 "/></clipPath><clipPath id="56d8583d6f"><path d="M 70 38.589844 L 84 38.589844 L 84 87 L 70 87 Z M 70 38.589844 "/></clipPath><clipPath id="073c8fd605"><rect x="0" width="139" y="0" height="139"/></clipPath><clipPath id="1539076c3e"><path d="M 267 177.421875 L 343 177.421875 L 343 254.5625 L 267 254.5625 Z M 267 177.421875 "/></clipPath><clipPath id="abbbb60545"><rect x="0" width="68" y="0" height="200"/></clipPath><clipPath id="ec0853c7eb"><rect x="0" width="1031" y="0" height="49"/></clipPath></defs><g id="04e71f8f64"><g style="fill:#ffffff;fill-opacity:1;"><g transform="translate(82.275946, 376.764634)"><path style="stroke:none" d="M 91.9375 3.140625 C 81.644531 3.140625 71.644531 1.859375 61.9375 -0.703125 C 52.226562 -3.273438 43.460938 -7.238281 35.640625 -12.59375 C 27.828125 -17.945312 21.503906 -24.898438 16.671875 -33.453125 C 11.847656 -42.003906 9.125 -52.257812 8.5 -64.21875 C 8.5 -68.414062 10.597656 -70.515625 14.796875 -70.515625 L 51.625 -70.515625 C 55.507812 -70.515625 57.609375 -68.523438 57.921875 -64.546875 C 59.390625 -54.785156 63.664062 -47.460938 70.75 -42.578125 C 77.84375 -37.703125 86.476562 -35.265625 96.65625 -35.265625 C 101.894531 -35.265625 106.847656 -35.972656 111.515625 -37.390625 C 116.191406 -38.804688 119.972656 -41.21875 122.859375 -44.625 C 125.742188 -48.039062 127.1875 -52.6875 127.1875 -58.5625 C 127.1875 -63.695312 126.082031 -67.941406 123.875 -71.296875 C 121.675781 -74.660156 118.632812 -77.414062 114.75 -79.5625 C 110.875 -81.71875 106.390625 -83.503906 101.296875 -84.921875 C 96.203125 -86.335938 90.796875 -87.675781 85.078125 -88.9375 C 79.359375 -90.195312 73.5625 -91.613281 67.6875 -93.1875 C 61.28125 -94.96875 54.984375 -97.117188 48.796875 -99.640625 C 42.609375 -102.160156 36.96875 -105.546875 31.875 -109.796875 C 26.78125 -114.046875 22.710938 -119.445312 19.671875 -126 C 16.628906 -132.5625 15.109375 -140.722656 15.109375 -150.484375 C 15.109375 -162.128906 17.257812 -172.148438 21.5625 -180.546875 C 25.863281 -188.941406 31.660156 -195.867188 38.953125 -201.328125 C 46.253906 -206.785156 54.414062 -210.800781 63.4375 -213.375 C 72.457031 -215.945312 81.640625 -217.234375 90.984375 -217.234375 C 100.003906 -217.234375 108.894531 -216.050781 117.65625 -213.6875 C 126.425781 -211.320312 134.457031 -207.671875 141.75 -202.734375 C 149.039062 -197.804688 155.046875 -191.429688 159.765625 -183.609375 C 164.492188 -175.796875 167.28125 -166.4375 168.125 -155.53125 C 168.4375 -151.113281 166.441406 -148.90625 162.140625 -148.90625 L 128.140625 -148.90625 C 124.359375 -148.90625 122.15625 -150.898438 121.53125 -154.890625 C 119.84375 -163.710938 116.140625 -169.90625 110.421875 -173.46875 C 104.703125 -177.039062 97.910156 -178.828125 90.046875 -178.828125 C 81.753906 -178.828125 75.0625 -177.015625 69.96875 -173.390625 C 64.875 -169.765625 62.328125 -164.332031 62.328125 -157.09375 C 62.328125 -151.957031 63.613281 -147.835938 66.1875 -144.734375 C 68.757812 -141.640625 72.222656 -139.148438 76.578125 -137.265625 C 80.929688 -135.378906 85.941406 -133.832031 91.609375 -132.625 C 97.273438 -131.414062 103.15625 -130.128906 109.25 -128.765625 C 115.4375 -127.398438 121.648438 -125.769531 127.890625 -123.875 C 134.140625 -121.988281 140.046875 -119.601562 145.609375 -116.71875 C 151.171875 -113.832031 156.128906 -110.132812 160.484375 -105.625 C 164.835938 -101.113281 168.25 -95.601562 170.71875 -89.09375 C 173.1875 -82.59375 174.421875 -74.722656 174.421875 -65.484375 C 174.421875 -54.992188 172.789062 -45.890625 169.53125 -38.171875 C 166.28125 -30.460938 161.847656 -23.957031 156.234375 -18.65625 C 150.617188 -13.351562 144.242188 -9.101562 137.109375 -5.90625 C 129.972656 -2.707031 122.519531 -0.398438 114.75 1.015625 C 106.988281 2.429688 99.382812 3.140625 91.9375 3.140625 Z M 91.9375 3.140625 "/></g></g><g style="fill:#ffffff;fill-opacity:1;"><g transform="translate(266.45451, 376.764634)"><path style="stroke:none" d=""/></g></g><g style="fill:#ffffff;fill-opacity:1;"><g transform="translate(348.311627, 376.764634)"><path style="stroke:none" d="M 194.25 -143.875 C 206.3125 -143.875 216.304688 -141.535156 224.234375 -136.859375 C 232.160156 -132.191406 238.0625 -125.894531 241.9375 -117.96875 C 245.820312 -110.050781 247.765625 -101.160156 247.765625 -91.296875 L 247.765625 -6.296875 C 247.765625 -2.097656 245.664062 0 241.46875 0 L 206.84375 0 C 202.644531 0 200.546875 -2.097656 200.546875 -6.296875 L 200.546875 -75.5625 C 200.546875 -85.53125 199.101562 -93.109375 196.21875 -98.296875 C 193.332031 -103.492188 187.640625 -106.09375 179.140625 -106.09375 C 170.640625 -106.09375 164.472656 -103.492188 160.640625 -98.296875 C 156.804688 -93.109375 154.890625 -85.53125 154.890625 -75.5625 L 154.890625 -6.296875 C 154.890625 -2.097656 152.789062 0 148.59375 0 L 113.96875 0 C 109.769531 0 107.671875 -2.097656 107.671875 -6.296875 L 107.671875 -75.5625 C 107.671875 -85.53125 106.125 -93.109375 103.03125 -98.296875 C 99.9375 -103.492188 94.453125 -106.09375 86.578125 -106.09375 C 79.441406 -106.09375 73.828125 -103.757812 69.734375 -99.09375 C 65.640625 -94.425781 63.171875 -88.050781 62.328125 -79.96875 L 62.328125 -6.296875 C 62.328125 -2.097656 60.234375 0 56.046875 0 L 21.40625 0 C 17.207031 0 15.109375 -2.097656 15.109375 -6.296875 L 15.109375 -141.984375 C 32.003906 -138.523438 44.441406 -130.757812 52.421875 -118.6875 C 59.242188 -126.664062 67.164062 -132.859375 76.1875 -137.265625 C 85.207031 -141.671875 94.335938 -143.875 103.578125 -143.875 C 108.722656 -143.875 113.890625 -143.269531 119.078125 -142.0625 C 124.273438 -140.851562 129.128906 -138.675781 133.640625 -135.53125 C 138.148438 -132.382812 141.878906 -127.875 144.828125 -122 C 151.429688 -130.070312 158.691406 -135.734375 166.609375 -138.984375 C 174.535156 -142.242188 183.75 -143.875 194.25 -143.875 Z M 194.25 -143.875 "/></g></g><g style="fill:#ffffff;fill-opacity:1;"><g transform="translate(609.624781, 376.764634)"><path style="stroke:none" d="M 133.953125 -116.328125 C 141.617188 -131.546875 154.6875 -140.097656 173.15625 -141.984375 L 173.15625 3.140625 C 154.6875 1.253906 141.617188 -7.347656 133.953125 -22.671875 C 127.867188 -14.066406 120.050781 -7.296875 110.5 -2.359375 C 100.957031 2.566406 90.253906 5.03125 78.390625 5.03125 C 68.210938 5.03125 58.875 3.222656 50.375 -0.390625 C 41.875 -4.015625 34.550781 -9.128906 28.40625 -15.734375 C 22.269531 -22.347656 17.519531 -30.21875 14.15625 -39.34375 C 10.800781 -48.476562 9.125 -58.554688 9.125 -69.578125 C 9.125 -80.492188 10.800781 -90.488281 14.15625 -99.5625 C 17.519531 -108.644531 22.269531 -116.488281 28.40625 -123.09375 C 34.550781 -129.707031 41.875 -134.820312 50.375 -138.4375 C 58.875 -142.0625 68.210938 -143.875 78.390625 -143.875 C 90.253906 -143.875 100.957031 -141.429688 110.5 -136.546875 C 120.050781 -131.671875 127.867188 -124.929688 133.953125 -116.328125 Z M 92.875 -32.734375 C 99.269531 -32.734375 104.960938 -34.28125 109.953125 -37.375 C 114.941406 -40.476562 118.851562 -44.785156 121.6875 -50.296875 C 124.519531 -55.804688 125.9375 -62.128906 125.9375 -69.265625 C 125.9375 -76.398438 124.519531 -82.722656 121.6875 -88.234375 C 118.851562 -93.742188 114.941406 -98.046875 109.953125 -101.140625 C 104.960938 -104.234375 99.269531 -105.78125 92.875 -105.78125 C 86.46875 -105.78125 80.769531 -104.234375 75.78125 -101.140625 C 70.800781 -98.046875 66.894531 -93.742188 64.0625 -88.234375 C 61.226562 -82.722656 59.8125 -76.398438 59.8125 -69.265625 C 59.8125 -62.128906 61.226562 -55.804688 64.0625 -50.296875 C 66.894531 -44.785156 70.800781 -40.476562 75.78125 -37.375 C 80.769531 -34.28125 86.46875 -32.734375 92.875 -32.734375 Z M 92.875 -32.734375 "/></g></g><g style="fill:#ffffff;fill-opacity:1;"><g transform="translate(798.210983, 376.764634)"><path style="stroke:none" d="M 107.359375 -72.71875 L 167.484375 -7.875 C 169.378906 -5.875 169.957031 -4.0625 169.21875 -2.4375 C 168.488281 -0.8125 166.757812 0 164.03125 0 L 115.859375 0 C 112.710938 0 110.191406 -1.257812 108.296875 -3.78125 L 62.328125 -61.703125 L 62.328125 -6.296875 C 62.328125 -2.097656 60.234375 0 56.046875 0 L 21.40625 0 C 17.207031 0 15.109375 -2.097656 15.109375 -6.296875 L 15.109375 -236.125 C 30.429688 -232.976562 42.128906 -226.285156 50.203125 -216.046875 C 58.285156 -205.816406 62.328125 -192.566406 62.328125 -176.296875 L 62.328125 -83.109375 L 106.734375 -135.375 C 108.722656 -137.6875 111.34375 -138.84375 114.59375 -138.84375 L 160.875 -138.84375 C 163.601562 -138.84375 165.28125 -138.050781 165.90625 -136.46875 C 166.539062 -134.894531 165.914062 -133.0625 164.03125 -130.96875 Z M 107.359375 -72.71875 "/></g></g><g transform="matrix(1,0,0,1,974,238)"><g clip-path="url(#073c8fd605)"><g clip-rule="nonzero" clip-path="url(#07cd3f7006)"><path style=" stroke:none;fill-rule:nonzero;fill:#ffffff;fill-opacity:1;" d="M 60.578125 0.386719 L 78.292969 0.386719 C 80.316406 0.386719 81.957031 2.023438 81.964844 4.042969 C 81.964844 4.054688 81.964844 4.066406 81.96875 4.078125 L 82.804688 16.0625 C 82.824219 16.324219 83.003906 16.539062 83.253906 16.605469 C 87.074219 17.605469 90.726562 19.003906 94.171875 20.761719 C 94.175781 20.761719 94.175781 20.765625 94.175781 20.765625 C 94.507812 20.9375 94.601562 21.363281 94.378906 21.65625 L 85.988281 32.675781 C 85.820312 32.894531 85.523438 32.976562 85.269531 32.863281 C 83.839844 32.242188 82.363281 31.699219 80.847656 31.246094 C 78.910156 30.664062 76.910156 30.230469 74.863281 29.949219 C 73.632812 29.78125 72.390625 29.671875 71.128906 29.617188 C 70.566406 29.59375 70.003906 29.582031 69.433594 29.582031 C 68.34375 29.582031 67.265625 29.625 66.199219 29.710938 C 54.5625 30.648438 44.34375 36.597656 37.703125 45.398438 C 32.679688 52.054688 29.703125 60.335938 29.703125 69.3125 C 29.703125 91.257812 47.492188 109.046875 69.433594 109.046875 C 75.066406 109.046875 80.417969 107.875 85.269531 105.765625 C 85.523438 105.65625 85.820312 105.734375 85.988281 105.953125 L 86.773438 106.988281 L 94.371094 116.964844 C 94.597656 117.261719 94.503906 117.691406 94.171875 117.867188 C 94.132812 117.886719 94.089844 117.90625 94.050781 117.925781 C 93.996094 117.957031 93.945312 117.984375 93.890625 118.007812 C 92.164062 118.878906 90.382812 119.660156 88.554688 120.34375 C 86.828125 120.988281 85.0625 121.550781 83.253906 122.023438 C 83.003906 122.089844 82.824219 122.308594 82.804688 122.566406 L 81.96875 134.550781 C 81.964844 134.5625 81.964844 134.574219 81.964844 134.585938 C 81.957031 136.605469 80.316406 138.242188 78.292969 138.242188 L 60.578125 138.242188 C 58.554688 138.242188 56.910156 136.605469 56.90625 134.585938 C 56.90625 134.574219 56.902344 134.5625 56.902344 134.550781 L 56.066406 122.566406 C 56.046875 122.308594 55.867188 122.089844 55.613281 122.023438 C 50.757812 120.753906 46.167969 118.832031 41.9375 116.355469 C 41.714844 116.222656 41.433594 116.25 41.238281 116.417969 L 32.164062 124.308594 C 32.15625 124.3125 32.148438 124.320312 32.140625 124.328125 C 30.707031 125.753906 28.390625 125.746094 26.960938 124.316406 L 19.324219 116.683594 L 14.433594 111.789062 C 13 110.359375 12.996094 108.039062 14.421875 106.605469 C 14.429688 106.597656 14.4375 106.589844 14.441406 106.582031 L 22.328125 97.511719 C 22.5 97.316406 22.523438 97.03125 22.394531 96.808594 C 19.917969 92.582031 17.996094 87.992188 16.726562 83.136719 C 16.660156 82.882812 16.441406 82.703125 16.183594 82.683594 L 4.195312 81.847656 C 4.1875 81.847656 4.175781 81.847656 4.164062 81.847656 C 2.140625 81.835938 0.507812 80.195312 0.507812 78.171875 L 0.507812 60.457031 C 0.507812 58.433594 2.140625 56.792969 4.164062 56.78125 C 4.175781 56.78125 4.1875 56.78125 4.195312 56.78125 L 16.183594 55.945312 C 16.441406 55.925781 16.660156 55.746094 16.726562 55.492188 C 17.996094 50.636719 19.917969 46.046875 22.394531 41.816406 C 22.523438 41.59375 22.5 41.3125 22.328125 41.117188 L 21 39.585938 L 14.441406 32.046875 C 14.4375 32.039062 14.429688 32.03125 14.421875 32.023438 C 12.996094 30.585938 13 28.269531 14.433594 26.839844 L 19.324219 21.945312 L 26.960938 14.3125 C 28.390625 12.882812 30.707031 12.875 32.140625 14.300781 C 32.148438 14.308594 32.15625 14.3125 32.164062 14.320312 L 41.238281 22.210938 C 41.433594 22.378906 41.714844 22.40625 41.9375 22.273438 C 45.589844 20.132812 49.515625 18.40625 53.644531 17.160156 C 54.296875 16.960938 54.953125 16.777344 55.613281 16.605469 C 55.867188 16.539062 56.046875 16.320312 56.066406 16.0625 L 56.1875 14.289062 L 56.292969 12.804688 L 56.601562 8.363281 L 56.902344 4.078125 C 56.902344 4.066406 56.90625 4.054688 56.90625 4.042969 C 56.910156 2.023438 58.554688 0.386719 60.578125 0.386719 "/></g><g clip-rule="nonzero" clip-path="url(#9f8b39682d)"><g transform="matrix(1,0,0,1,44,-0.000000000000085265)"><g id="3b5b35f393" clip-path="url(#6ff24b694f)"><g clip-rule="nonzero" clip-path="url(#01da5930a2)"><path style=" stroke:none;fill-rule:nonzero;fill:#ffffff;fill-opacity:1;" d="M 34.492188 0.386719 L 16.777344 0.386719 C 14.753906 0.386719 13.113281 2.023438 13.105469 4.042969 C 13.105469 4.054688 13.105469 4.066406 13.101562 4.078125 L 12.265625 16.0625 C 12.246094 16.324219 12.066406 16.539062 11.816406 16.605469 C 7.996094 17.605469 4.34375 19.003906 0.898438 20.761719 C 0.894531 20.761719 0.894531 20.765625 0.894531 20.765625 C 0.5625 20.9375 0.46875 21.363281 0.691406 21.65625 L 9.082031 32.675781 C 9.25 32.894531 9.546875 32.976562 9.800781 32.863281 C 11.230469 32.242188 12.707031 31.699219 14.222656 31.246094 C 16.160156 30.664062 18.160156 30.230469 20.207031 29.949219 C 21.4375 29.78125 22.679688 29.671875 23.941406 29.617188 C 24.503906 29.59375 25.066406 29.582031 25.636719 29.582031 C 26.726562 29.582031 27.804688 29.625 28.871094 29.710938 C 40.507812 30.648438 50.726562 36.597656 57.367188 45.398438 C 62.390625 52.054688 65.367188 60.335938 65.367188 69.3125 C 65.367188 91.257812 47.578125 109.046875 25.636719 109.046875 C 20.003906 109.046875 14.652344 107.875 9.800781 105.765625 C 9.546875 105.65625 9.25 105.734375 9.082031 105.953125 L 8.292969 106.988281 L 0.699219 116.964844 C 0.472656 117.261719 0.566406 117.691406 0.898438 117.867188 C 0.9375 117.886719 0.980469 117.90625 1.019531 117.925781 C 1.074219 117.957031 1.125 117.984375 1.179688 118.007812 C 2.90625 118.878906 4.6875 119.660156 6.515625 120.34375 C 8.242188 120.988281 10.007812 121.550781 11.816406 122.023438 C 12.066406 122.089844 12.246094 122.308594 12.265625 122.566406 L 13.101562 134.550781 C 13.105469 134.5625 13.105469 134.574219 13.105469 134.585938 C 13.113281 136.605469 14.753906 138.242188 16.777344 138.242188 L 34.492188 138.242188 C 36.515625 138.242188 38.160156 136.605469 38.164062 134.585938 C 38.164062 134.574219 38.167969 134.5625 38.167969 134.550781 L 39.003906 122.566406 C 39.023438 122.308594 39.203125 122.089844 39.457031 122.023438 C 44.3125 120.753906 48.902344 118.832031 53.132812 116.355469 C 53.355469 116.222656 53.636719 116.25 53.832031 116.417969 L 62.90625 124.308594 C 62.914062 124.3125 62.917969 124.320312 62.929688 124.328125 C 64.363281 125.753906 66.679688 125.746094 68.109375 124.316406 L 75.746094 116.683594 L 80.636719 111.789062 C 82.070312 110.359375 82.074219 108.039062 80.648438 106.605469 C 80.640625 106.597656 80.632812 106.589844 80.628906 106.582031 L 72.742188 97.511719 C 72.570312 97.316406 72.546875 97.03125 72.675781 96.808594 C 75.152344 92.582031 77.074219 87.992188 78.34375 83.136719 C 78.410156 82.882812 78.628906 82.703125 78.886719 82.683594 L 90.875 81.847656 C 90.882812 81.847656 90.894531 81.847656 90.90625 81.847656 C 92.925781 81.835938 94.5625 80.195312 94.5625 78.171875 L 94.5625 60.457031 C 94.5625 58.433594 92.925781 56.792969 90.90625 56.78125 C 90.894531 56.78125 90.882812 56.78125 90.875 56.78125 L 78.886719 55.945312 C 78.628906 55.925781 78.410156 55.746094 78.34375 55.492188 C 77.074219 50.636719 75.152344 46.046875 72.675781 41.816406 C 72.546875 41.59375 72.570312 41.3125 72.742188 41.117188 L 74.070312 39.585938 L 80.628906 32.046875 C 80.632812 32.039062 80.640625 32.03125 80.648438 32.023438 C 82.074219 30.585938 82.070312 28.269531 80.636719 26.839844 L 75.746094 21.945312 L 68.109375 14.3125 C 66.679688 12.882812 64.363281 12.875 62.929688 14.300781 C 62.917969 14.308594 62.914062 14.3125 62.90625 14.320312 L 53.832031 22.210938 C 53.636719 22.378906 53.355469 22.40625 53.132812 22.273438 C 49.480469 20.132812 45.554688 18.40625 41.425781 17.160156 C 40.773438 16.960938 40.117188 16.777344 39.457031 16.605469 C 39.203125 16.539062 39.023438 16.320312 39.003906 16.0625 L 38.882812 14.289062 L 38.777344 12.804688 L 38.46875 8.363281 L 38.167969 4.078125 C 38.167969 4.066406 38.164062 4.054688 38.164062 4.042969 C 38.160156 2.023438 36.515625 0.386719 34.492188 0.386719 "/></g></g></g></g><g clip-rule="nonzero" clip-path="url(#1e8f3c9e24)"><path style=" stroke:none;fill-rule:evenodd;fill:#ffffff;fill-opacity:1;" d="M 42.304688 83.589844 C 42.507812 83.070312 48.109375 75.050781 53.746094 74.707031 C 63.214844 74.125 64.316406 82.414062 64.460938 82.800781 C 64.542969 83.019531 63.042969 93.105469 53.679688 92.710938 C 43.152344 92.265625 42.589844 84.101562 42.304688 83.589844 Z M 42.304688 83.589844 "/></g><g clip-rule="nonzero" clip-path="url(#3c73714872)"><path style=" stroke:none;fill-rule:evenodd;fill:#ffffff;fill-opacity:1;" d="M 96.765625 83.589844 C 96.558594 83.070312 90.957031 75.050781 85.324219 74.707031 C 75.855469 74.125 74.75 82.414062 74.605469 82.800781 C 74.527344 83.019531 76.023438 93.105469 85.386719 92.710938 C 95.914062 92.265625 96.480469 84.101562 96.765625 83.589844 Z M 96.765625 83.589844 "/></g><g clip-rule="nonzero" clip-path="url(#6567df7505)"><path style=" stroke:none;fill-rule:evenodd;fill:#ffffff;fill-opacity:1;" d="M 59.132812 46.617188 C 60.089844 48.703125 59.148438 51.457031 59.042969 51.953125 C 58.503906 54.464844 58.085938 58.089844 58.652344 60.597656 C 60.023438 66.652344 63.800781 69.089844 64.878906 75.292969 C 65.328125 77.890625 65.101562 81.453125 62.808594 83.171875 C 61.378906 84.246094 59.585938 84.871094 57.832031 85.164062 C 57.5 85.21875 55.898438 85.046875 55.664062 85.28125 C 55.464844 85.480469 56.128906 85.601562 56.367188 85.75 C 57.285156 86.324219 58.214844 86.65625 59.296875 86.804688 C 61.988281 87.171875 65.878906 84.925781 67.171875 82.164062 C 68.871094 78.511719 67.449219 73.867188 66.117188 70.246094 C 65.40625 68.316406 65.671875 63.15625 68.019531 57.644531 C 68.511719 56.488281 69.765625 50.429688 68.195312 45.925781 C 66.652344 41.503906 62.246094 38.601562 62.332031 38.675781 C 63.878906 40.015625 63.328125 47.847656 62.125 53.089844 C 61.28125 56.769531 61.414062 58.601562 61.414062 58.601562 C 61.414062 58.601562 60.945312 56.316406 61.726562 52.257812 C 62.1875 49.871094 60.464844 47.683594 59.132812 46.617188 Z M 59.132812 46.617188 "/></g><g clip-rule="nonzero" clip-path="url(#56d8583d6f)"><path style=" stroke:none;fill-rule:evenodd;fill:#ffffff;fill-opacity:1;" d="M 79.933594 46.617188 C 78.976562 48.703125 79.921875 51.457031 80.027344 51.953125 C 80.566406 54.464844 80.984375 58.089844 80.414062 60.597656 C 79.046875 66.652344 75.269531 69.089844 74.191406 75.292969 C 73.738281 77.890625 73.96875 81.453125 76.261719 83.171875 C 77.691406 84.246094 79.484375 84.871094 81.238281 85.164062 C 81.570312 85.21875 83.171875 85.046875 83.402344 85.28125 C 83.601562 85.480469 82.9375 85.601562 82.699219 85.75 C 81.785156 86.324219 80.855469 86.65625 79.773438 86.804688 C 77.082031 87.171875 73.1875 84.925781 71.898438 82.164062 C 70.195312 78.511719 71.617188 73.867188 72.953125 70.246094 C 73.664062 68.316406 73.398438 63.15625 71.050781 57.644531 C 70.558594 56.488281 69.300781 50.429688 70.875 45.925781 C 72.414062 41.503906 76.820312 38.601562 76.738281 38.675781 C 75.1875 40.015625 75.738281 47.847656 76.941406 53.089844 C 77.789062 56.769531 77.65625 58.601562 77.65625 58.601562 C 77.65625 58.601562 78.125 56.316406 77.34375 52.257812 C 76.882812 49.871094 78.601562 47.683594 79.933594 46.617188 Z M 79.933594 46.617188 "/></g><path style=" stroke:none;fill-rule:evenodd;fill:#ffffff;fill-opacity:1;" d="M 61.183594 84.402344 C 61.1875 83.953125 61.496094 83.984375 61.851562 83.984375 C 62.664062 83.984375 63.054688 84.203125 63.445312 84.984375 C 63.886719 85.871094 64.25 86.988281 64.445312 87.957031 C 64.632812 88.898438 64.582031 89.988281 65.175781 90.804688 C 66.007812 91.941406 67.644531 92.25 68.839844 91.621094 C 68.953125 91.5625 69.476562 91.4375 69.515625 91.394531 C 69.605469 91.308594 69.324219 91.234375 69.292969 91.226562 C 68.957031 91.171875 68.554688 91.25 68.222656 91.285156 C 67.390625 91.367188 66.664062 90.699219 66.277344 90.042969 C 65.378906 88.519531 65.976562 86.496094 65.09375 85 C 64.621094 84.199219 64.117188 83.503906 63.078125 83.550781 C 62.726562 83.566406 62.40625 83.691406 62.078125 83.816406 "/><path style=" stroke:none;fill-rule:evenodd;fill:#ffffff;fill-opacity:1;" d="M 77.886719 84.402344 C 77.882812 83.953125 77.574219 83.984375 77.214844 83.984375 C 76.402344 83.984375 76.011719 84.203125 75.625 84.984375 C 75.179688 85.871094 74.816406 86.988281 74.625 87.957031 C 74.433594 88.898438 74.488281 89.988281 73.890625 90.804688 C 73.058594 91.941406 71.421875 92.25 70.226562 91.621094 C 70.117188 91.5625 69.589844 91.4375 69.550781 91.394531 C 69.464844 91.308594 69.742188 91.234375 69.777344 91.226562 C 70.113281 91.171875 70.511719 91.25 70.847656 91.285156 C 71.679688 91.367188 72.40625 90.699219 72.792969 90.042969 C 73.6875 88.519531 73.089844 86.496094 73.976562 85 C 74.449219 84.199219 74.949219 83.503906 75.988281 83.550781 C 76.34375 83.566406 76.664062 83.691406 76.992188 83.816406 "/></g></g><g clip-rule="nonzero" clip-path="url(#1539076c3e)"><path style=" stroke:none;fill-rule:nonzero;fill:#ffffff;fill-opacity:1;" d="M 305.0625 177.460938 C 299.988281 183.394531 291.859375 187.742188 292.429688 197.179688 C 293.875 209.277344 300.214844 218.558594 299.636719 229.992188 L 297.109375 229.992188 C 297.058594 229.066406 296.988281 228.109375 296.886719 227.125 C 295.789062 216.359375 290.875 204.429688 281.503906 203.582031 C 281.0625 203.542969 280.628906 203.527344 280.199219 203.535156 C 271.453125 203.664062 264.839844 213.078125 269.394531 222.128906 C 273.683594 230.652344 281.984375 231.21875 281.984375 231.21875 C 281.984375 231.21875 280.324219 224.84375 285.652344 223.820312 C 291.554688 222.6875 293.214844 229.691406 293.214844 229.691406 C 293.214844 229.691406 293.234375 229.84375 293.25 229.992188 L 292.429688 229.992188 C 290.890625 229.992188 289.65625 231.230469 289.65625 232.765625 C 289.65625 234.304688 290.890625 235.539062 292.429688 235.539062 L 293.273438 235.539062 C 293.015625 237.453125 292.359375 239.148438 290.875 239.347656 C 288.546875 239.65625 286.132812 237.851562 286.132812 237.851562 C 285.703125 241.503906 286.632812 246.175781 291.664062 246.261719 C 294.726562 246.207031 296.703125 242.117188 297.113281 235.539062 L 299.960938 235.539062 C 299.578125 242.605469 298.902344 248.691406 295.203125 252.703125 C 297.746094 253.738281 301.402344 254.46875 305.0625 254.382812 C 308.722656 254.46875 312.378906 253.738281 314.921875 252.703125 C 311.222656 248.691406 310.546875 242.605469 310.164062 235.539062 L 313.011719 235.539062 C 313.421875 242.117188 315.398438 246.207031 318.460938 246.261719 C 323.492188 246.175781 324.421875 241.503906 323.992188 237.851562 C 323.992188 237.851562 321.578125 239.65625 319.25 239.347656 C 317.765625 239.148438 317.109375 237.453125 316.851562 235.539062 L 317.695312 235.539062 C 319.234375 235.539062 320.46875 234.304688 320.46875 232.765625 C 320.46875 231.230469 319.234375 229.992188 317.695312 229.992188 L 316.871094 229.992188 C 316.890625 229.84375 316.90625 229.691406 316.90625 229.691406 C 316.90625 229.691406 318.566406 222.6875 324.472656 223.820312 C 329.800781 224.84375 328.140625 231.21875 328.140625 231.21875 C 328.140625 231.21875 336.441406 230.652344 340.730469 222.128906 C 345.285156 213.078125 338.671875 203.664062 329.925781 203.535156 C 329.496094 203.527344 329.0625 203.542969 328.621094 203.582031 C 319.25 204.429688 314.332031 216.359375 313.238281 227.125 C 313.136719 228.109375 313.066406 229.066406 313.015625 229.992188 L 310.488281 229.992188 C 309.910156 218.558594 316.25 209.277344 317.695312 197.179688 C 318.261719 187.742188 310.132812 183.394531 305.0625 177.460938 Z M 305.0625 194.707031 L 308.40625 229.992188 L 306.582031 229.992188 L 305.0625 212.757812 L 303.542969 229.992188 L 301.714844 229.992188 Z M 279.574219 209.996094 L 281.011719 214.0625 L 285.320312 214.175781 L 281.898438 216.796875 L 283.121094 220.933594 L 279.570312 218.488281 L 276.015625 220.929688 L 277.242188 216.796875 L 273.824219 214.167969 L 278.132812 214.058594 Z M 330.550781 209.996094 L 331.992188 214.058594 L 336.300781 214.167969 L 332.882812 216.796875 L 334.109375 220.929688 L 330.554688 218.488281 L 327.003906 220.933594 L 328.226562 216.796875 L 324.804688 214.175781 L 329.113281 214.0625 Z M 293.136719 232.167969 L 316.988281 232.167969 C 317.320312 232.167969 317.585938 232.433594 317.585938 232.765625 C 317.585938 233.097656 317.320312 233.363281 316.988281 233.363281 L 310.050781 233.363281 C 310.050781 233.359375 310.050781 233.351562 310.050781 233.34375 L 309.882812 233.363281 L 300.242188 233.363281 L 300.074219 233.34375 C 300.074219 233.351562 300.074219 233.359375 300.070312 233.363281 L 293.136719 233.363281 C 292.804688 233.363281 292.539062 233.097656 292.539062 232.765625 C 292.539062 232.433594 292.804688 232.167969 293.136719 232.167969 Z M 302.179688 235.539062 L 303.847656 235.539062 L 305.0625 242.621094 L 306.277344 235.539062 L 307.945312 235.539062 L 305.0625 248.871094 Z M 302.179688 235.539062 "/></g><g transform="matrix(1,0,0,1,271,221)"><g clip-path="url(#abbbb60545)"><g style="fill:#ffffff;fill-opacity:1;"><g transform="translate(0.620813, 157.143947)"><path style="stroke:none" d="M 59.03125 -91.5 L 46.078125 -91.5 L 46.078125 -22.875 L 59.03125 -22.875 C 61.269531 -22.875 62.390625 -21.753906 62.390625 -19.515625 L 62.390625 -3.359375 C 62.390625 -1.117188 61.269531 0 59.03125 0 L 7.90625 0 C 5.664062 0 4.546875 -1.117188 4.546875 -3.359375 L 4.546875 -19.515625 C 4.546875 -21.753906 5.664062 -22.875 7.90625 -22.875 L 20.859375 -22.875 L 20.859375 -58.03125 C 20.859375 -66.832031 22.550781 -74.078125 25.9375 -79.765625 C 29.332031 -85.453125 33.773438 -89.363281 39.265625 -91.5 L 7.90625 -91.5 C 5.664062 -91.5 4.546875 -92.617188 4.546875 -94.859375 L 4.546875 -111 C 4.546875 -113.25 5.664062 -114.375 7.90625 -114.375 L 59.03125 -114.375 C 61.269531 -114.375 62.390625 -113.25 62.390625 -111 L 62.390625 -94.859375 C 62.390625 -92.617188 61.269531 -91.5 59.03125 -91.5 Z M 59.03125 -91.5 "/></g></g></g></g><g transform="matrix(1,0,0,1,82,397)"><g clip-path="url(#ec0853c7eb)"><g style="fill:#ffffff;fill-opacity:1;"><g transform="translate(0.393618, 39.127062)"><path style="stroke:none" d="M 18.421875 -20.84375 C 18.304688 -22 17.8125 -22.894531 16.9375 -23.53125 C 16.0625 -24.164062 14.890625 -24.484375 13.421875 -24.484375 C 11.898438 -24.484375 10.734375 -24.171875 9.921875 -23.546875 C 9.117188 -22.929688 8.71875 -22.15625 8.71875 -21.21875 C 8.695312 -20.164062 9.144531 -19.367188 10.0625 -18.828125 C 10.976562 -18.296875 12.070312 -17.882812 13.34375 -17.59375 L 15.96875 -16.953125 C 17.664062 -16.578125 19.171875 -16.023438 20.484375 -15.296875 C 21.804688 -14.578125 22.847656 -13.644531 23.609375 -12.5 C 24.367188 -11.363281 24.75 -9.984375 24.75 -8.359375 C 24.738281 -5.679688 23.734375 -3.546875 21.734375 -1.953125 C 19.742188 -0.367188 16.960938 0.421875 13.390625 0.421875 C 9.835938 0.421875 7.003906 -0.382812 4.890625 -2 C 2.773438 -3.625 1.675781 -6.019531 1.59375 -9.1875 L 7.59375 -9.1875 C 7.695312 -7.71875 8.273438 -6.613281 9.328125 -5.875 C 10.378906 -5.132812 11.707031 -4.765625 13.3125 -4.765625 C 14.882812 -4.765625 16.140625 -5.097656 17.078125 -5.765625 C 18.015625 -6.429688 18.488281 -7.300781 18.5 -8.375 C 18.488281 -9.363281 18.054688 -10.125 17.203125 -10.65625 C 16.347656 -11.1875 15.125 -11.644531 13.53125 -12.03125 L 10.34375 -12.828125 C 7.875 -13.421875 5.925781 -14.359375 4.5 -15.640625 C 3.070312 -16.929688 2.363281 -18.648438 2.375 -20.796875 C 2.363281 -22.566406 2.835938 -24.117188 3.796875 -25.453125 C 4.753906 -26.785156 6.070312 -27.816406 7.75 -28.546875 C 9.425781 -29.285156 11.328125 -29.65625 13.453125 -29.65625 C 15.628906 -29.65625 17.53125 -29.285156 19.15625 -28.546875 C 20.78125 -27.804688 22.039062 -26.769531 22.9375 -25.4375 C 23.84375 -24.113281 24.3125 -22.582031 24.34375 -20.84375 Z M 18.421875 -20.84375 "/></g></g><g style="fill:#ffffff;fill-opacity:1;"><g transform="translate(26.736455, 39.127062)"><path style="stroke:none" d="M 8.734375 -29.265625 L 8.734375 0 L 2.546875 0 L 2.546875 -29.265625 Z M 8.734375 -29.265625 "/></g></g><g style="fill:#ffffff;fill-opacity:1;"><g transform="translate(38.02216, 39.127062)"><path style="stroke:none" d="M 18.421875 -20.84375 C 18.304688 -22 17.8125 -22.894531 16.9375 -23.53125 C 16.0625 -24.164062 14.890625 -24.484375 13.421875 -24.484375 C 11.898438 -24.484375 10.734375 -24.171875 9.921875 -23.546875 C 9.117188 -22.929688 8.71875 -22.15625 8.71875 -21.21875 C 8.695312 -20.164062 9.144531 -19.367188 10.0625 -18.828125 C 10.976562 -18.296875 12.070312 -17.882812 13.34375 -17.59375 L 15.96875 -16.953125 C 17.664062 -16.578125 19.171875 -16.023438 20.484375 -15.296875 C 21.804688 -14.578125 22.847656 -13.644531 23.609375 -12.5 C 24.367188 -11.363281 24.75 -9.984375 24.75 -8.359375 C 24.738281 -5.679688 23.734375 -3.546875 21.734375 -1.953125 C 19.742188 -0.367188 16.960938 0.421875 13.390625 0.421875 C 9.835938 0.421875 7.003906 -0.382812 4.890625 -2 C 2.773438 -3.625 1.675781 -6.019531 1.59375 -9.1875 L 7.59375 -9.1875 C 7.695312 -7.71875 8.273438 -6.613281 9.328125 -5.875 C 10.378906 -5.132812 11.707031 -4.765625 13.3125 -4.765625 C 14.882812 -4.765625 16.140625 -5.097656 17.078125 -5.765625 C 18.015625 -6.429688 18.488281 -7.300781 18.5 -8.375 C 18.488281 -9.363281 18.054688 -10.125 17.203125 -10.65625 C 16.347656 -11.1875 15.125 -11.644531 13.53125 -12.03125 L 10.34375 -12.828125 C 7.875 -13.421875 5.925781 -14.359375 4.5 -15.640625 C 3.070312 -16.929688 2.363281 -18.648438 2.375 -20.796875 C 2.363281 -22.566406 2.835938 -24.117188 3.796875 -25.453125 C 4.753906 -26.785156 6.070312 -27.816406 7.75 -28.546875 C 9.425781 -29.285156 11.328125 -29.65625 13.453125 -29.65625 C 15.628906 -29.65625 17.53125 -29.285156 19.15625 -28.546875 C 20.78125 -27.804688 22.039062 -26.769531 22.9375 -25.4375 C 23.84375 -24.113281 24.3125 -22.582031 24.34375 -20.84375 Z M 18.421875 -20.84375 "/></g></g><g style="fill:#ffffff;fill-opacity:1;"><g transform="translate(64.364997, 39.127062)"><path style="stroke:none" d="M 1.421875 -24.15625 L 1.421875 -29.265625 L 25.453125 -29.265625 L 25.453125 -24.15625 L 16.5 -24.15625 L 16.5 0 L 10.390625 0 L 10.390625 -24.15625 Z M 1.421875 -24.15625 "/></g></g><g style="fill:#ffffff;fill-opacity:1;"><g transform="translate(91.250692, 39.127062)"><path style="stroke:none" d="M 2.546875 0 L 2.546875 -29.265625 L 22.265625 -29.265625 L 22.265625 -24.15625 L 8.734375 -24.15625 L 8.734375 -17.1875 L 21.25 -17.1875 L 21.25 -12.09375 L 8.734375 -12.09375 L 8.734375 -5.09375 L 22.3125 -5.09375 L 22.3125 0 Z M 2.546875 0 "/></g></g><g style="fill:#ffffff;fill-opacity:1;"><g transform="translate(115.893533, 39.127062)"><path style="stroke:none" d="M 2.546875 -29.265625 L 10.171875 -29.265625 L 18.234375 -9.59375 L 18.578125 -9.59375 L 26.625 -29.265625 L 34.265625 -29.265625 L 34.265625 0 L 28.265625 0 L 28.265625 -19.046875 L 28.015625 -19.046875 L 20.453125 -0.140625 L 16.359375 -0.140625 L 8.78125 -19.109375 L 8.546875 -19.109375 L 8.546875 0 L 2.546875 0 Z M 2.546875 -29.265625 "/></g></g><g style="fill:#ffffff;fill-opacity:1;"><g transform="translate(153.064936, 39.127062)"><path style="stroke:none" d=""/></g></g><g style="fill:#ffffff;fill-opacity:1;"><g transform="translate(162.393504, 39.127062)"><path style="stroke:none" d="M 2.546875 -29.265625 L 10.171875 -29.265625 L 18.234375 -9.59375 L 18.578125 -9.59375 L 26.625 -29.265625 L 34.265625 -29.265625 L 34.265625 0 L 28.265625 0 L 28.265625 -19.046875 L 28.015625 -19.046875 L 20.453125 -0.140625 L 16.359375 -0.140625 L 8.78125 -19.109375 L 8.546875 -19.109375 L 8.546875 0 L 2.546875 0 Z M 2.546875 -29.265625 "/></g></g><g style="fill:#ffffff;fill-opacity:1;"><g transform="translate(199.564916, 39.127062)"><path style="stroke:none" d="M 7.59375 0 L 0.953125 0 L 11.0625 -29.265625 L 19.03125 -29.265625 L 29.125 0 L 22.484375 0 L 20.3125 -6.671875 L 9.765625 -6.671875 Z M 11.328125 -11.5 L 18.765625 -11.5 L 15.15625 -22.578125 L 14.9375 -22.578125 Z M 11.328125 -11.5 "/></g></g><g style="fill:#ffffff;fill-opacity:1;"><g transform="translate(229.650604, 39.127062)"><path style="stroke:none" d="M 27.015625 -29.265625 L 27.015625 0 L 21.671875 0 L 8.9375 -18.421875 L 8.734375 -18.421875 L 8.734375 0 L 2.546875 0 L 2.546875 -29.265625 L 7.96875 -29.265625 L 20.609375 -10.859375 L 20.859375 -10.859375 L 20.859375 -29.265625 Z M 27.015625 -29.265625 "/></g></g><g style="fill:#ffffff;fill-opacity:1;"><g transform="translate(259.221995, 39.127062)"><path style="stroke:none" d="M 7.59375 0 L 0.953125 0 L 11.0625 -29.265625 L 19.03125 -29.265625 L 29.125 0 L 22.484375 0 L 20.3125 -6.671875 L 9.765625 -6.671875 Z M 11.328125 -11.5 L 18.765625 -11.5 L 15.15625 -22.578125 L 14.9375 -22.578125 Z M 11.328125 -11.5 "/></g></g><g style="fill:#ffffff;fill-opacity:1;"><g transform="translate(289.307699, 39.127062)"><path style="stroke:none" d="M 14.265625 -29.265625 L 20.375 -29.265625 L 20.375 -8.859375 C 20.375 -6.972656 19.953125 -5.335938 19.109375 -3.953125 C 18.265625 -2.566406 17.09375 -1.492188 15.59375 -0.734375 C 14.101562 0.0234375 12.367188 0.40625 10.390625 0.40625 C 8.628906 0.40625 7.03125 0.09375 5.59375 -0.53125 C 4.15625 -1.164062 3.015625 -2.117188 2.171875 -3.390625 C 1.335938 -4.671875 0.925781 -6.285156 0.9375 -8.234375 L 7.09375 -8.234375 C 7.113281 -7.066406 7.453125 -6.160156 8.109375 -5.515625 C 8.765625 -4.878906 9.628906 -4.5625 10.703125 -4.5625 C 13.054688 -4.5625 14.242188 -5.992188 14.265625 -8.859375 Z M 14.265625 -29.265625 "/></g></g><g style="fill:#ffffff;fill-opacity:1;"><g transform="translate(312.236264, 39.127062)"><path style="stroke:none" d="M 2.546875 0 L 2.546875 -29.265625 L 22.265625 -29.265625 L 22.265625 -24.15625 L 8.734375 -24.15625 L 8.734375 -17.1875 L 21.25 -17.1875 L 21.25 -12.09375 L 8.734375 -12.09375 L 8.734375 -5.09375 L 22.3125 -5.09375 L 22.3125 0 Z M 2.546875 0 "/></g></g><g style="fill:#ffffff;fill-opacity:1;"><g transform="translate(336.879113, 39.127062)"><path style="stroke:none" d="M 2.546875 -29.265625 L 10.171875 -29.265625 L 18.234375 -9.59375 L 18.578125 -9.59375 L 26.625 -29.265625 L 34.265625 -29.265625 L 34.265625 0 L 28.265625 0 L 28.265625 -19.046875 L 28.015625 -19.046875 L 20.453125 -0.140625 L 16.359375 -0.140625 L 8.78125 -19.109375 L 8.546875 -19.109375 L 8.546875 0 L 2.546875 0 Z M 2.546875 -29.265625 "/></g></g><g style="fill:#ffffff;fill-opacity:1;"><g transform="translate(374.050493, 39.127062)"><path style="stroke:none" d="M 2.546875 0 L 2.546875 -29.265625 L 22.265625 -29.265625 L 22.265625 -24.15625 L 8.734375 -24.15625 L 8.734375 -17.1875 L 21.25 -17.1875 L 21.25 -12.09375 L 8.734375 -12.09375 L 8.734375 -5.09375 L 22.3125 -5.09375 L 22.3125 0 Z M 2.546875 0 "/></g></g><g style="fill:#ffffff;fill-opacity:1;"><g transform="translate(398.693342, 39.127062)"><path style="stroke:none" d="M 27.015625 -29.265625 L 27.015625 0 L 21.671875 0 L 8.9375 -18.421875 L 8.734375 -18.421875 L 8.734375 0 L 2.546875 0 L 2.546875 -29.265625 L 7.96875 -29.265625 L 20.609375 -10.859375 L 20.859375 -10.859375 L 20.859375 -29.265625 Z M 27.015625 -29.265625 "/></g></g><g style="fill:#ffffff;fill-opacity:1;"><g transform="translate(428.264748, 39.127062)"><path style="stroke:none" d=""/></g></g><g style="fill:#ffffff;fill-opacity:1;"><g transform="translate(437.593316, 39.127062)"><path style="stroke:none" d="M 7.59375 0 L 0.953125 0 L 11.0625 -29.265625 L 19.03125 -29.265625 L 29.125 0 L 22.484375 0 L 20.3125 -6.671875 L 9.765625 -6.671875 Z M 11.328125 -11.5 L 18.765625 -11.5 L 15.15625 -22.578125 L 14.9375 -22.578125 Z M 11.328125 -11.5 "/></g></g><g style="fill:#ffffff;fill-opacity:1;"><g transform="translate(467.67902, 39.127062)"><path style="stroke:none" d="M 12.921875 0 L 2.546875 0 L 2.546875 -29.265625 L 13 -29.265625 C 15.945312 -29.265625 18.484375 -28.679688 20.609375 -27.515625 C 22.734375 -26.347656 24.367188 -24.671875 25.515625 -22.484375 C 26.660156 -20.304688 27.234375 -17.695312 27.234375 -14.65625 C 27.234375 -11.613281 26.65625 -8.992188 25.5 -6.796875 C 24.351562 -4.609375 22.710938 -2.925781 20.578125 -1.75 C 18.441406 -0.582031 15.890625 0 12.921875 0 Z M 8.734375 -5.296875 L 12.65625 -5.296875 C 15.40625 -5.296875 17.492188 -6.039062 18.921875 -7.53125 C 20.347656 -9.019531 21.0625 -11.394531 21.0625 -14.65625 C 21.0625 -17.90625 20.347656 -20.265625 18.921875 -21.734375 C 17.492188 -23.210938 15.410156 -23.953125 12.671875 -23.953125 L 8.734375 -23.953125 Z M 8.734375 -5.296875 "/></g></g><g style="fill:#ffffff;fill-opacity:1;"><g transform="translate(496.936142, 39.127062)"><path style="stroke:none" d="M 2.546875 -29.265625 L 10.171875 -29.265625 L 18.234375 -9.59375 L 18.578125 -9.59375 L 26.625 -29.265625 L 34.265625 -29.265625 L 34.265625 0 L 28.265625 0 L 28.265625 -19.046875 L 28.015625 -19.046875 L 20.453125 -0.140625 L 16.359375 -0.140625 L 8.78125 -19.109375 L 8.546875 -19.109375 L 8.546875 0 L 2.546875 0 Z M 2.546875 -29.265625 "/></g></g><g style="fill:#ffffff;fill-opacity:1;"><g transform="translate(534.107553, 39.127062)"><path style="stroke:none" d="M 8.734375 -29.265625 L 8.734375 0 L 2.546875 0 L 2.546875 -29.265625 Z M 8.734375 -29.265625 "/></g></g><g style="fill:#ffffff;fill-opacity:1;"><g transform="translate(545.393227, 39.127062)"><path style="stroke:none" d="M 27.015625 -29.265625 L 27.015625 0 L 21.671875 0 L 8.9375 -18.421875 L 8.734375 -18.421875 L 8.734375 0 L 2.546875 0 L 2.546875 -29.265625 L 7.96875 -29.265625 L 20.609375 -10.859375 L 20.859375 -10.859375 L 20.859375 -29.265625 Z M 27.015625 -29.265625 "/></g></g><g style="fill:#ffffff;fill-opacity:1;"><g transform="translate(574.964634, 39.127062)"><path style="stroke:none" d="M 8.734375 -29.265625 L 8.734375 0 L 2.546875 0 L 2.546875 -29.265625 Z M 8.734375 -29.265625 "/></g></g><g style="fill:#ffffff;fill-opacity:1;"><g transform="translate(586.25037, 39.127062)"><path style="stroke:none" d="M 18.421875 -20.84375 C 18.304688 -22 17.8125 -22.894531 16.9375 -23.53125 C 16.0625 -24.164062 14.890625 -24.484375 13.421875 -24.484375 C 11.898438 -24.484375 10.734375 -24.171875 9.921875 -23.546875 C 9.117188 -22.929688 8.71875 -22.15625 8.71875 -21.21875 C 8.695312 -20.164062 9.144531 -19.367188 10.0625 -18.828125 C 10.976562 -18.296875 12.070312 -17.882812 13.34375 -17.59375 L 15.96875 -16.953125 C 17.664062 -16.578125 19.171875 -16.023438 20.484375 -15.296875 C 21.804688 -14.578125 22.847656 -13.644531 23.609375 -12.5 C 24.367188 -11.363281 24.75 -9.984375 24.75 -8.359375 C 24.738281 -5.679688 23.734375 -3.546875 21.734375 -1.953125 C 19.742188 -0.367188 16.960938 0.421875 13.390625 0.421875 C 9.835938 0.421875 7.003906 -0.382812 4.890625 -2 C 2.773438 -3.625 1.675781 -6.019531 1.59375 -9.1875 L 7.59375 -9.1875 C 7.695312 -7.71875 8.273438 -6.613281 9.328125 -5.875 C 10.378906 -5.132812 11.707031 -4.765625 13.3125 -4.765625 C 14.882812 -4.765625 16.140625 -5.097656 17.078125 -5.765625 C 18.015625 -6.429688 18.488281 -7.300781 18.5 -8.375 C 18.488281 -9.363281 18.054688 -10.125 17.203125 -10.65625 C 16.347656 -11.1875 15.125 -11.644531 13.53125 -12.03125 L 10.34375 -12.828125 C 7.875 -13.421875 5.925781 -14.359375 4.5 -15.640625 C 3.070312 -16.929688 2.363281 -18.648438 2.375 -20.796875 C 2.363281 -22.566406 2.835938 -24.117188 3.796875 -25.453125 C 4.753906 -26.785156 6.070312 -27.816406 7.75 -28.546875 C 9.425781 -29.285156 11.328125 -29.65625 13.453125 -29.65625 C 15.628906 -29.65625 17.53125 -29.285156 19.15625 -28.546875 C 20.78125 -27.804688 22.039062 -26.769531 22.9375 -25.4375 C 23.84375 -24.113281 24.3125 -22.582031 24.34375 -20.84375 Z M 18.421875 -20.84375 "/></g></g><g style="fill:#ffffff;fill-opacity:1;"><g transform="translate(612.593192, 39.127062)"><path style="stroke:none" d="M 1.421875 -24.15625 L 1.421875 -29.265625 L 25.453125 -29.265625 L 25.453125 -24.15625 L 16.5 -24.15625 L 16.5 0 L 10.390625 0 L 10.390625 -24.15625 Z M 1.421875 -24.15625 "/></g></g><g style="fill:#ffffff;fill-opacity:1;"><g transform="translate(639.478902, 39.127062)"><path style="stroke:none" d="M 2.546875 0 L 2.546875 -29.265625 L 14.09375 -29.265625 C 17.414062 -29.265625 19.992188 -28.394531 21.828125 -26.65625 C 23.660156 -24.925781 24.578125 -22.609375 24.578125 -19.703125 C 24.578125 -17.703125 24.128906 -15.988281 23.234375 -14.5625 C 22.347656 -13.144531 21.070312 -12.082031 19.40625 -11.375 L 25.625 0 L 18.78125 0 L 13.25 -10.375 L 8.734375 -10.375 L 8.734375 0 Z M 8.734375 -15.34375 L 12.9375 -15.34375 C 16.445312 -15.34375 18.203125 -16.796875 18.203125 -19.703125 C 18.203125 -22.703125 16.4375 -24.203125 12.90625 -24.203125 L 8.734375 -24.203125 Z M 8.734375 -15.34375 "/></g></g><g style="fill:#ffffff;fill-opacity:1;"><g transform="translate(665.878843, 39.127062)"><path style="stroke:none" d="M 7.59375 0 L 0.953125 0 L 11.0625 -29.265625 L 19.03125 -29.265625 L 29.125 0 L 22.484375 0 L 20.3125 -6.671875 L 9.765625 -6.671875 Z M 11.328125 -11.5 L 18.765625 -11.5 L 15.15625 -22.578125 L 14.9375 -22.578125 Z M 11.328125 -11.5 "/></g></g><g style="fill:#ffffff;fill-opacity:1;"><g transform="translate(695.278705, 39.127062)"><path style="stroke:none" d="M 18.421875 -20.84375 C 18.304688 -22 17.8125 -22.894531 16.9375 -23.53125 C 16.0625 -24.164062 14.890625 -24.484375 13.421875 -24.484375 C 11.898438 -24.484375 10.734375 -24.171875 9.921875 -23.546875 C 9.117188 -22.929688 8.71875 -22.15625 8.71875 -21.21875 C 8.695312 -20.164062 9.144531 -19.367188 10.0625 -18.828125 C 10.976562 -18.296875 12.070312 -17.882812 13.34375 -17.59375 L 15.96875 -16.953125 C 17.664062 -16.578125 19.171875 -16.023438 20.484375 -15.296875 C 21.804688 -14.578125 22.847656 -13.644531 23.609375 -12.5 C 24.367188 -11.363281 24.75 -9.984375 24.75 -8.359375 C 24.738281 -5.679688 23.734375 -3.546875 21.734375 -1.953125 C 19.742188 -0.367188 16.960938 0.421875 13.390625 0.421875 C 9.835938 0.421875 7.003906 -0.382812 4.890625 -2 C 2.773438 -3.625 1.675781 -6.019531 1.59375 -9.1875 L 7.59375 -9.1875 C 7.695312 -7.71875 8.273438 -6.613281 9.328125 -5.875 C 10.378906 -5.132812 11.707031 -4.765625 13.3125 -4.765625 C 14.882812 -4.765625 16.140625 -5.097656 17.078125 -5.765625 C 18.015625 -6.429688 18.488281 -7.300781 18.5 -8.375 C 18.488281 -9.363281 18.054688 -10.125 17.203125 -10.65625 C 16.347656 -11.1875 15.125 -11.644531 13.53125 -12.03125 L 10.34375 -12.828125 C 7.875 -13.421875 5.925781 -14.359375 4.5 -15.640625 C 3.070312 -16.929688 2.363281 -18.648438 2.375 -20.796875 C 2.363281 -22.566406 2.835938 -24.117188 3.796875 -25.453125 C 4.753906 -26.785156 6.070312 -27.816406 7.75 -28.546875 C 9.425781 -29.285156 11.328125 -29.65625 13.453125 -29.65625 C 15.628906 -29.65625 17.53125 -29.285156 19.15625 -28.546875 C 20.78125 -27.804688 22.039062 -26.769531 22.9375 -25.4375 C 23.84375 -24.113281 24.3125 -22.582031 24.34375 -20.84375 Z M 18.421875 -20.84375 "/></g></g><g style="fill:#ffffff;fill-opacity:1;"><g transform="translate(721.621588, 39.127062)"><path style="stroke:none" d="M 8.734375 -29.265625 L 8.734375 0 L 2.546875 0 L 2.546875 -29.265625 Z M 8.734375 -29.265625 "/></g></g><g style="fill:#ffffff;fill-opacity:1;"><g transform="translate(732.907262, 39.127062)"><path style="stroke:none" d=""/></g></g><g style="fill:#ffffff;fill-opacity:1;"><g transform="translate(742.23583, 39.127062)"><path style="stroke:none" d="M 2.546875 0 L 2.546875 -29.265625 L 8.734375 -29.265625 L 8.734375 -16.359375 L 9.109375 -16.359375 L 19.640625 -29.265625 L 27.0625 -29.265625 L 16.203125 -16.15625 L 27.1875 0 L 19.78125 0 L 11.765625 -12.03125 L 8.734375 -8.3125 L 8.734375 0 Z M 2.546875 0 "/></g></g><g style="fill:#ffffff;fill-opacity:1;"><g transform="translate(768.335523, 39.127062)"><path style="stroke:none" d="M 29.4375 -14.625 C 29.4375 -11.4375 28.832031 -8.722656 27.625 -6.484375 C 26.414062 -4.242188 24.773438 -2.535156 22.703125 -1.359375 C 20.640625 -0.179688 18.316406 0.40625 15.734375 0.40625 C 13.128906 0.40625 10.789062 -0.179688 8.71875 -1.359375 C 6.65625 -2.546875 5.023438 -4.257812 3.828125 -6.5 C 2.628906 -8.75 2.03125 -11.457031 2.03125 -14.625 C 2.03125 -17.820312 2.628906 -20.535156 3.828125 -22.765625 C 5.023438 -25.003906 6.65625 -26.710938 8.71875 -27.890625 C 10.789062 -29.066406 13.128906 -29.65625 15.734375 -29.65625 C 18.316406 -29.65625 20.640625 -29.066406 22.703125 -27.890625 C 24.773438 -26.710938 26.414062 -25.003906 27.625 -22.765625 C 28.832031 -20.535156 29.4375 -17.820312 29.4375 -14.625 Z M 23.15625 -14.625 C 23.15625 -17.726562 22.476562 -20.097656 21.125 -21.734375 C 19.78125 -23.367188 17.984375 -24.1875 15.734375 -24.1875 C 13.484375 -24.1875 11.679688 -23.367188 10.328125 -21.734375 C 8.972656 -20.097656 8.296875 -17.726562 8.296875 -14.625 C 8.296875 -11.53125 8.972656 -9.164062 10.328125 -7.53125 C 11.679688 -5.894531 13.484375 -5.078125 15.734375 -5.078125 C 17.984375 -5.078125 19.78125 -5.894531 21.125 -7.53125 C 22.476562 -9.164062 23.15625 -11.53125 23.15625 -14.625 Z M 23.15625 -14.625 "/></g></g><g style="fill:#ffffff;fill-opacity:1;"><g transform="translate(799.792635, 39.127062)"><path style="stroke:none" d="M 2.546875 0 L 2.546875 -29.265625 L 14.09375 -29.265625 C 16.3125 -29.265625 18.203125 -28.84375 19.765625 -28 C 21.328125 -27.15625 22.519531 -25.988281 23.34375 -24.5 C 24.164062 -23.007812 24.578125 -21.289062 24.578125 -19.34375 C 24.578125 -17.40625 24.15625 -15.691406 23.3125 -14.203125 C 22.476562 -12.722656 21.265625 -11.566406 19.671875 -10.734375 C 18.085938 -9.898438 16.175781 -9.484375 13.9375 -9.484375 L 8.734375 -9.484375 L 8.734375 0 Z M 8.734375 -14.4375 L 12.9375 -14.4375 C 14.707031 -14.4375 16.023438 -14.890625 16.890625 -15.796875 C 17.765625 -16.710938 18.203125 -17.894531 18.203125 -19.34375 C 18.203125 -20.800781 17.765625 -21.972656 16.890625 -22.859375 C 16.023438 -23.753906 14.695312 -24.203125 12.90625 -24.203125 L 8.734375 -24.203125 Z M 8.734375 -14.4375 "/></g></g><g style="fill:#ffffff;fill-opacity:1;"><g transform="translate(825.849794, 39.127062)"><path style="stroke:none" d="M 2.546875 0 L 2.546875 -29.265625 L 14.09375 -29.265625 C 17.414062 -29.265625 19.992188 -28.394531 21.828125 -26.65625 C 23.660156 -24.925781 24.578125 -22.609375 24.578125 -19.703125 C 24.578125 -17.703125 24.128906 -15.988281 23.234375 -14.5625 C 22.347656 -13.144531 21.070312 -12.082031 19.40625 -11.375 L 25.625 0 L 18.78125 0 L 13.25 -10.375 L 8.734375 -10.375 L 8.734375 0 Z M 8.734375 -15.34375 L 12.9375 -15.34375 C 16.445312 -15.34375 18.203125 -16.796875 18.203125 -19.703125 C 18.203125 -22.703125 16.4375 -24.203125 12.90625 -24.203125 L 8.734375 -24.203125 Z M 8.734375 -15.34375 "/></g></g><g style="fill:#ffffff;fill-opacity:1;"><g transform="translate(852.249736, 39.127062)"><path style="stroke:none" d="M 7.59375 0 L 0.953125 0 L 11.0625 -29.265625 L 19.03125 -29.265625 L 29.125 0 L 22.484375 0 L 20.3125 -6.671875 L 9.765625 -6.671875 Z M 11.328125 -11.5 L 18.765625 -11.5 L 15.15625 -22.578125 L 14.9375 -22.578125 Z M 11.328125 -11.5 "/></g></g><g style="fill:#ffffff;fill-opacity:1;"><g transform="translate(882.335409, 39.127062)"><path style="stroke:none" d="M 2.546875 -29.265625 L 10.171875 -29.265625 L 18.234375 -9.59375 L 18.578125 -9.59375 L 26.625 -29.265625 L 34.265625 -29.265625 L 34.265625 0 L 28.265625 0 L 28.265625 -19.046875 L 28.015625 -19.046875 L 20.453125 -0.140625 L 16.359375 -0.140625 L 8.78125 -19.109375 L 8.546875 -19.109375 L 8.546875 0 L 2.546875 0 Z M 2.546875 -29.265625 "/></g></g><g style="fill:#ffffff;fill-opacity:1;"><g transform="translate(919.50682, 39.127062)"><path style="stroke:none" d="M 18.421875 -20.84375 C 18.304688 -22 17.8125 -22.894531 16.9375 -23.53125 C 16.0625 -24.164062 14.890625 -24.484375 13.421875 -24.484375 C 11.898438 -24.484375 10.734375 -24.171875 9.921875 -23.546875 C 9.117188 -22.929688 8.71875 -22.15625 8.71875 -21.21875 C 8.695312 -20.164062 9.144531 -19.367188 10.0625 -18.828125 C 10.976562 -18.296875 12.070312 -17.882812 13.34375 -17.59375 L 15.96875 -16.953125 C 17.664062 -16.578125 19.171875 -16.023438 20.484375 -15.296875 C 21.804688 -14.578125 22.847656 -13.644531 23.609375 -12.5 C 24.367188 -11.363281 24.75 -9.984375 24.75 -8.359375 C 24.738281 -5.679688 23.734375 -3.546875 21.734375 -1.953125 C 19.742188 -0.367188 16.960938 0.421875 13.390625 0.421875 C 9.835938 0.421875 7.003906 -0.382812 4.890625 -2 C 2.773438 -3.625 1.675781 -6.019531 1.59375 -9.1875 L 7.59375 -9.1875 C 7.695312 -7.71875 8.273438 -6.613281 9.328125 -5.875 C 10.378906 -5.132812 11.707031 -4.765625 13.3125 -4.765625 C 14.882812 -4.765625 16.140625 -5.097656 17.078125 -5.765625 C 18.015625 -6.429688 18.488281 -7.300781 18.5 -8.375 C 18.488281 -9.363281 18.054688 -10.125 17.203125 -10.65625 C 16.347656 -11.1875 15.125 -11.644531 13.53125 -12.03125 L 10.34375 -12.828125 C 7.875 -13.421875 5.925781 -14.359375 4.5 -15.640625 C 3.070312 -16.929688 2.363281 -18.648438 2.375 -20.796875 C 2.363281 -22.566406 2.835938 -24.117188 3.796875 -25.453125 C 4.753906 -26.785156 6.070312 -27.816406 7.75 -28.546875 C 9.425781 -29.285156 11.328125 -29.65625 13.453125 -29.65625 C 15.628906 -29.65625 17.53125 -29.285156 19.15625 -28.546875 C 20.78125 -27.804688 22.039062 -26.769531 22.9375 -25.4375 C 23.84375 -24.113281 24.3125 -22.582031 24.34375 -20.84375 Z M 18.421875 -20.84375 "/></g></g><g style="fill:#ffffff;fill-opacity:1;"><g transform="translate(945.849703, 39.127062)"><path style="stroke:none" d="M 2.546875 0 L 2.546875 -29.265625 L 22.265625 -29.265625 L 22.265625 -24.15625 L 8.734375 -24.15625 L 8.734375 -17.1875 L 21.25 -17.1875 L 21.25 -12.09375 L 8.734375 -12.09375 L 8.734375 -5.09375 L 22.3125 -5.09375 L 22.3125 0 Z M 2.546875 0 "/></g></g><g style="fill:#ffffff;fill-opacity:1;"><g transform="translate(970.492521, 39.127062)"><path style="stroke:none" d="M 21.953125 -19.796875 C 21.554688 -21.171875 20.832031 -22.242188 19.78125 -23.015625 C 18.726562 -23.796875 17.40625 -24.1875 15.8125 -24.1875 C 13.570312 -24.1875 11.757812 -23.359375 10.375 -21.703125 C 8.988281 -20.054688 8.296875 -17.707031 8.296875 -14.65625 C 8.296875 -11.601562 8.976562 -9.242188 10.34375 -7.578125 C 11.707031 -5.910156 13.550781 -5.078125 15.875 -5.078125 C 17.925781 -5.078125 19.539062 -5.609375 20.71875 -6.671875 C 21.894531 -7.742188 22.503906 -9.1875 22.546875 -11 L 16.265625 -11 L 16.265625 -15.65625 L 28.5 -15.65625 L 28.5 -11.96875 C 28.5 -9.40625 27.957031 -7.195312 26.875 -5.34375 C 25.789062 -3.5 24.296875 -2.078125 22.390625 -1.078125 C 20.492188 -0.0859375 18.3125 0.40625 15.84375 0.40625 C 13.101562 0.40625 10.691406 -0.203125 8.609375 -1.421875 C 6.535156 -2.640625 4.921875 -4.367188 3.765625 -6.609375 C 2.609375 -8.847656 2.03125 -11.515625 2.03125 -14.609375 C 2.03125 -17.765625 2.632812 -20.46875 3.84375 -22.71875 C 5.050781 -24.96875 6.6875 -26.6875 8.75 -27.875 C 10.820312 -29.0625 13.144531 -29.65625 15.71875 -29.65625 C 17.925781 -29.65625 19.925781 -29.234375 21.71875 -28.390625 C 23.507812 -27.554688 24.972656 -26.398438 26.109375 -24.921875 C 27.253906 -23.441406 27.960938 -21.734375 28.234375 -19.796875 Z M 21.953125 -19.796875 "/></g></g><g style="fill:#ffffff;fill-opacity:1;"><g transform="translate(1000.178046, 39.127062)"><path style="stroke:none" d="M 7.59375 0 L 0.953125 0 L 11.0625 -29.265625 L 19.03125 -29.265625 L 29.125 0 L 22.484375 0 L 20.3125 -6.671875 L 9.765625 -6.671875 Z M 11.328125 -11.5 L 18.765625 -11.5 L 15.15625 -22.578125 L 14.9375 -22.578125 Z M 11.328125 -11.5 "/></g></g></g></g></g></svg>